<svg width="223" height="496" viewBox="0 0 223 496" fill="none" xmlns="http://www.w3.org/2000/svg">
<path d="M212.54 23.99V210.51H10.01V23.99L104.24 117.36L111.28 124.33L118.32 117.36L212.55 23.99M222.54 0L111.27 110.25L0 0V220.51H222.53V0H222.54Z" fill="#0400CC"/>
<path d="M60.6997 245.89C88.6497 245.89 111.39 268.63 111.39 296.58C111.39 324.53 88.6497 347.27 60.6997 347.27C32.7497 347.27 10.0098 324.53 10.0098 296.58C10.0098 268.63 32.7497 245.89 60.6997 245.89ZM60.6997 235.89C27.1797 235.89 0.00976562 263.06 0.00976562 296.58C0.00976562 330.1 27.1797 357.27 60.6997 357.27C94.2197 357.27 121.39 330.1 121.39 296.58C121.39 263.06 94.2197 235.89 60.6997 235.89Z" fill="#0400CC"/>
<path d="M212.54 386.42V485.41H113.55V386.42H212.54ZM222.54 376.42H103.55V495.41H222.54V376.42Z" fill="#0400CC"/>
<path d="M212.54 247.69V279.11H138.07V247.69H212.54ZM222.54 237.69H128.07V289.11H222.54V237.69Z" fill="#0400CC"/>
<path d="M212.54 314.06V345.48H138.07V314.06H212.54ZM222.54 304.06H128.07V355.48H222.54V304.06Z" fill="#0400CC"/>
<path d="M85.6703 453.99V485.41H11.2002V453.99H85.6703ZM95.6703 443.99H1.2002V495.41H95.6703V443.99Z" fill="#0400CC"/>
<path d="M85.6703 386.42V417.84H11.2002V386.42H85.6703ZM95.6703 376.42H1.2002V427.84H95.6703V376.42Z" fill="#0400CC"/>
</svg>
