<svg width="155" height="343" viewBox="0 0 155 343" fill="none" xmlns="http://www.w3.org/2000/svg">
<path d="M147.153 16.6096V145.748H6.93048V16.6096L72.1711 81.2547L77.0453 86.0804L81.9194 81.2547L147.16 16.6096M154.077 0L77.0384 76.3321L0 0V152.671H154.07V0H154.077Z" fill="#C6C6C6"/>
<path d="M42.0258 170.243C61.3771 170.243 77.1213 185.987 77.1213 205.338C77.1213 224.689 61.3771 240.434 42.0258 240.434C22.6745 240.434 6.93039 224.689 6.93039 205.338C6.93039 185.987 22.6745 170.243 42.0258 170.243ZM42.0258 163.319C18.8181 163.319 0.00683594 182.13 0.00683594 205.338C0.00683594 228.546 18.8181 247.357 42.0258 247.357C65.2336 247.357 84.0449 228.546 84.0449 205.338C84.0449 182.13 65.2336 163.319 42.0258 163.319Z" fill="#C6C6C6"/>
<path d="M147.153 267.54V336.076H78.6169V267.54H147.153ZM154.077 260.616H71.6934V343H154.077V260.616Z" fill="#C6C6C6"/>
<path d="M147.153 171.489V193.243H95.5935V171.489H147.153ZM154.077 164.565H88.6699V200.166H154.077V164.565Z" fill="#C6C6C6"/>
<path d="M147.153 217.441V239.195H95.5935V217.441H147.153ZM154.077 210.518H88.6699V246.119H154.077V210.518Z" fill="#C6C6C6"/>
<path d="M59.3143 314.323V336.076H7.7546V314.323H59.3143ZM66.2379 307.399H0.831055V343H66.2379V307.399Z" fill="#C6C6C6"/>
<path d="M59.3143 267.54V289.294H7.7546V267.54H59.3143ZM66.2379 260.616H0.831055V296.217H66.2379V260.616Z" fill="#C6C6C6"/>
</svg>
