<svg width="129" height="287" viewBox="0 0 129 287" fill="none" xmlns="http://www.w3.org/2000/svg">
<path d="M123.128 13.8978V121.952H5.79897V13.8978L60.388 67.9886L64.4664 72.0264L68.5448 67.9886L123.134 13.8978M128.921 0L64.4606 63.8697L0 0V127.745H128.915V0H128.921Z" fill="white"/>
<path d="M35.1646 142.448C51.3565 142.448 64.5302 155.622 64.5302 171.814C64.5302 188.005 51.3565 201.179 35.1646 201.179C18.9727 201.179 5.79903 188.005 5.79903 171.814C5.79903 155.622 18.9727 142.448 35.1646 142.448ZM35.1646 136.655C15.7459 136.655 0.00585938 152.395 0.00585938 171.814C0.00585938 191.232 15.7459 206.972 35.1646 206.972C54.5833 206.972 70.3234 191.232 70.3234 171.814C70.3234 152.395 54.5833 136.655 35.1646 136.655Z" fill="white"/>
<path d="M123.128 223.86V281.207H65.7815V223.86H123.128ZM128.921 218.067H59.9883V287H128.921V218.067Z" fill="white"/>
<path d="M123.128 143.491V161.693H79.9865V143.491H123.128ZM128.922 137.698H74.1934V167.486H128.922V137.698Z" fill="white"/>
<path d="M123.128 181.941V200.143H79.9865V181.941H123.128ZM128.922 176.147H74.1934V205.936H128.922V176.147Z" fill="white"/>
<path d="M49.6303 263.005V281.207H6.48849V263.005H49.6303ZM55.4235 257.212H0.695312V287H55.4235V257.212Z" fill="white"/>
<path d="M49.6303 223.86V242.062H6.48849V223.86H49.6303ZM55.4235 218.067H0.695312V247.855H55.4235V218.067Z" fill="white"/>
</svg>
