<svg width="194" height="25" viewBox="0 0 194 25" fill="none" xmlns="http://www.w3.org/2000/svg">
<path d="M14.133 24.6973V18.9056C14.133 18.19 14.1591 17.453 14.216 16.6971C14.2705 15.9435 14.3297 15.306 14.3913 14.7942C14.453 14.2799 14.4932 13.9529 14.5075 13.8131H14.415L11.4482 24.6973H7.40539L4.4148 13.8344H4.32238C4.33897 13.9743 4.38163 14.2989 4.45035 14.8037C4.52144 15.3108 4.58542 15.9411 4.64941 16.6947C4.71102 17.4506 4.74182 18.1852 4.74182 18.9033V24.6949H0V8.62339H7.28928L9.71825 17.8961H9.81067L12.2159 8.62339H19.2469V24.6949H14.1307L14.133 24.6973Z" fill="#0400CC"/>
<path d="M36.7924 10.4718C38.3043 11.8889 39.0578 13.9505 39.0578 16.6615C39.0578 19.3725 38.3019 21.4365 36.7924 22.8536C35.2805 24.2707 33.1406 24.9792 30.368 24.9792C27.5955 24.9792 25.458 24.2754 23.9556 22.8655C22.4532 21.4555 21.702 19.3891 21.702 16.6639C21.702 13.9387 22.4532 11.8723 23.9556 10.4623C25.458 9.05231 27.5955 8.34852 30.368 8.34852C33.1406 8.34852 35.2805 9.05706 36.7924 10.4742V10.4718ZM27.8467 13.2041C27.2708 13.8747 26.9817 14.7776 26.9817 15.915V17.4103C26.9817 18.5454 27.2684 19.4507 27.8467 20.1213C28.4225 20.7919 29.2638 21.1237 30.3704 21.1237C31.4771 21.1237 32.3207 20.7896 32.906 20.1213C33.4913 19.4507 33.7828 18.5478 33.7828 17.4103V15.915C33.7828 14.7799 33.4913 13.8747 32.906 13.2041C32.3231 12.5335 31.4771 12.1993 30.3704 12.1993C29.2638 12.1993 28.4225 12.5335 27.8467 13.2041Z" fill="#0400CC"/>
<path d="M53.3307 24.6973L46.5793 16.8937V24.6973H41.8375V8.62576H46.3471L53.0984 16.5454V8.62576H57.8403V24.6973H53.3307Z" fill="#0400CC"/>
<path d="M61.383 8.62576H75.2815V12.4789H66.5443V14.6994H74.0208V18.389H66.5443V20.8417H75.445V24.6949H61.3807V8.62339L61.383 8.62576Z" fill="#0400CC"/>
<path d="M96.7962 24.6973L96.1185 22.4318H90.488L89.8103 24.6973H84.5305L90.3956 8.62576H96.3981L102.261 24.6973H96.7938H96.7962ZM91.5639 18.8346H95.045L93.3625 13.1117H93.2701L91.5662 18.8346H91.5639Z" fill="#0400CC"/>
<path d="M116.024 9.0452C117.254 9.51204 118.233 10.2016 118.956 11.114C119.678 12.0263 120.041 13.1354 120.041 14.4434H115.112C115.112 13.7728 114.816 13.2325 114.223 12.8178C113.631 12.4055 112.915 12.1993 112.074 12.1993C110.858 12.1993 109.939 12.524 109.318 13.1685C108.695 13.8155 108.384 14.7302 108.384 15.915V17.4103C108.384 18.5928 108.695 19.5075 109.318 20.1545C109.941 20.8014 110.858 21.1237 112.074 21.1237C112.915 21.1237 113.631 20.9247 114.223 20.5289C114.816 20.1332 115.112 19.6237 115.112 19.0004H111.467V15.7278H120.041V24.6973H117.377L116.863 23.1072C115.399 24.3537 113.484 24.9769 111.116 24.9769C108.453 24.9769 106.45 24.2802 105.112 22.8868C103.773 21.4934 103.102 19.4175 103.102 16.6591C103.102 13.9008 103.863 11.8676 105.379 10.4576C106.898 9.04759 109.06 8.34377 111.863 8.34377C113.406 8.34377 114.792 8.57836 116.022 9.04283L116.024 9.0452Z" fill="#0400CC"/>
<path d="M123.24 8.62576H137.141V12.4789H128.404V14.6994H135.88V18.389H128.404V20.8417H137.304V24.6949H123.24V8.62339V8.62576Z" fill="#0400CC"/>
<path d="M151.601 24.6973L144.85 16.8937V24.6973H140.108V8.62576H144.617L151.369 16.5454V8.62576H156.11V24.6973H151.601Z" fill="#0400CC"/>
<path d="M172.883 10.1329C174.27 11.3225 174.962 13.0263 174.962 15.2373H170.033C170.033 14.3036 169.789 13.5643 169.298 13.0169C168.807 12.4718 168.111 12.1993 167.208 12.1993C166.163 12.1993 165.397 12.5264 164.907 13.1828C164.416 13.8368 164.17 14.7468 164.17 15.915V17.4103C164.17 18.5644 164.414 19.4696 164.907 20.1308C165.397 20.7943 166.149 21.1237 167.16 21.1237C168.172 21.1237 168.912 20.8678 169.426 20.3535C169.94 19.8393 170.196 19.1142 170.196 18.1805H174.962C174.962 20.3749 174.289 22.0574 172.94 23.2257C171.594 24.3939 169.689 24.9769 167.229 24.9769C164.487 24.9769 162.414 24.2778 161.004 22.8749C159.594 21.472 158.89 19.4009 158.89 16.6591C158.89 13.9174 159.594 11.8462 161.004 10.4457C162.414 9.04284 164.487 8.34377 167.229 8.34377C169.611 8.34377 171.495 8.93858 172.883 10.1306V10.1329Z" fill="#0400CC"/>
<path d="M187.718 24.6973H182.554V18.4601L176.177 8.62576H182.111L185.194 13.9742H185.287L188.37 8.62576H194L187.715 18.4601V24.6973H187.718Z" fill="#0400CC"/>
<path d="M73.58 0L70.0657 4.55698H66.6675L68.5941 0H73.58Z" fill="#0400CC"/>
</svg>
