<svg width="2161" height="69" viewBox="0 0 2161 69" fill="none" xmlns="http://www.w3.org/2000/svg">
<path d="M65.77 7.73773V65.4559H3.09757V7.73773L32.2568 36.6308L34.4353 38.7876L36.6138 36.6308L65.7731 7.73773M68.8645 0.314087L34.4322 34.4307L0 0.314087V68.5504H68.8614V0.314087H68.8645Z" fill="#C6C6C6"/>
<path d="M184.162 65.77L126.444 65.77L126.444 3.09757L184.162 3.09757L155.269 32.2568L153.112 34.4353L155.269 36.6138L184.162 65.7731M191.586 68.8645L157.469 34.4322L191.586 0L123.35 -2.9827e-06L123.35 68.8614L191.586 68.8614L191.586 68.8645Z" fill="#C6C6C6"/>
<path d="M311.838 7.73773V65.4559H249.166V7.73773L278.325 36.6308L280.504 38.7876L282.682 36.6308L311.841 7.73773M314.933 0.314087L280.501 34.4307L246.068 0.314087V68.5504H314.93V0.314087H314.933Z" fill="#C6C6C6"/>
<path d="M430.231 65.77L372.512 65.77L372.512 3.09757L430.231 3.09757L401.338 32.2568L399.181 34.4353L401.338 36.6138L430.231 65.7731M437.654 68.8645L403.538 34.4322L437.654 0L369.418 -2.9827e-06L369.418 68.8614L437.654 68.8614L437.654 68.8645Z" fill="#C6C6C6"/>
<path d="M557.909 7.73773V65.4559H495.236V7.73773L524.395 36.6308L526.574 38.7876L528.752 36.6308L557.912 7.73773M561.003 0.314087L526.571 34.4307L492.139 0.314087V68.5504H561V0.314087H561.003Z" fill="#C6C6C6"/>
<path d="M676.299 65.77L618.581 65.77L618.581 3.09757L676.299 3.09757L647.406 32.2568L645.249 34.4353L647.406 36.6138L676.299 65.7731M683.723 68.8645L649.606 34.4322L683.723 0L615.486 -2.9827e-06L615.486 68.8614L683.723 68.8614L683.723 68.8645Z" fill="#C6C6C6"/>
<path d="M803.977 7.73773V65.4559H741.305V7.73773L770.464 36.6308L772.642 38.7876L774.821 36.6308L803.98 7.73773M807.071 0.314087L772.639 34.4307L738.207 0.314087V68.5504H807.068V0.314087H807.071Z" fill="#C6C6C6"/>
<path d="M922.369 65.77L864.651 65.77L864.651 3.09757L922.369 3.09757L893.476 32.2568L891.319 34.4353L893.476 36.6138L922.369 65.7731M929.793 68.8645L895.676 34.4322L929.793 0L861.557 -2.9827e-06L861.557 68.8614L929.793 68.8614L929.793 68.8645Z" fill="#C6C6C6"/>
<path d="M1050.05 7.73773V65.4559H987.375V7.73773L1016.53 36.6308L1018.71 38.7876L1020.89 36.6308L1050.05 7.73773M1053.14 0.314087L1018.71 34.4307L984.277 0.314087V68.5504H1053.14V0.314087H1053.14Z" fill="#C6C6C6"/>
<path d="M1168.44 65.77L1110.72 65.77L1110.72 3.09757L1168.44 3.09757L1139.54 32.2568L1137.39 34.4353L1139.54 36.6138L1168.44 65.7731M1175.86 68.8645L1141.74 34.4322L1175.86 0L1107.63 -2.9827e-06L1107.63 68.8614L1175.86 68.8614L1175.86 68.8645Z" fill="#C6C6C6"/>
<path d="M1296.12 7.73773V65.4559H1233.44V7.73773L1262.6 36.6308L1264.78 38.7876L1266.96 36.6308L1296.12 7.73773M1299.21 0.314087L1264.78 34.4307L1230.35 0.314087V68.5504H1299.21V0.314087H1299.21Z" fill="#C6C6C6"/>
<path d="M1414.51 65.77L1356.79 65.77L1356.79 3.09757L1414.51 3.09757L1385.61 32.2568L1383.46 34.4353L1385.61 36.6138L1414.51 65.7731M1421.93 68.8645L1387.82 34.4322L1421.93 0L1353.7 -2.9827e-06L1353.7 68.8614L1421.93 68.8614L1421.93 68.8645Z" fill="#C6C6C6"/>
<path d="M1542.18 7.73773V65.4559H1479.51V7.73773L1508.67 36.6308L1510.85 38.7876L1513.03 36.6308L1542.19 7.73773M1545.28 0.314087L1510.85 34.4307L1476.41 0.314087V68.5504H1545.28V0.314087H1545.28Z" fill="#C6C6C6"/>
<path d="M1660.58 65.77L1602.86 65.77L1602.86 3.09757L1660.58 3.09757L1631.68 32.2568L1629.53 34.4353L1631.68 36.6138L1660.58 65.7731M1668 68.8645L1633.88 34.4322L1668 0L1599.76 -2.9827e-06L1599.76 68.8614L1668 68.8614L1668 68.8645Z" fill="#C6C6C6"/>
<path d="M1788.25 7.73773V65.4559H1725.58V7.73773L1754.74 36.6308L1756.92 38.7876L1759.1 36.6308L1788.26 7.73773M1791.35 0.314087L1756.92 34.4307L1722.48 0.314087V68.5504H1791.35V0.314087H1791.35Z" fill="#C6C6C6"/>
<path d="M1906.64 65.77L1848.93 65.77L1848.93 3.09757L1906.64 3.09757L1877.75 32.2568L1875.59 34.4353L1877.75 36.6138L1906.64 65.7731M1914.07 68.8645L1879.95 34.4322L1914.07 0L1845.83 -2.9827e-06L1845.83 68.8614L1914.07 68.8614L1914.07 68.8645Z" fill="#C6C6C6"/>
<path d="M2034.32 7.73773V65.4559H1971.65V7.73773L2000.81 36.6308L2002.99 38.7876L2005.17 36.6308L2034.33 7.73773M2037.42 0.314087L2002.98 34.4307L1968.55 0.314087V68.5504H2037.41V0.314087H2037.42Z" fill="#C6C6C6"/>
<path d="M2152.72 65.77L2095 65.77L2095 3.09757L2152.72 3.09757L2123.82 32.2568L2121.67 34.4353L2123.82 36.6138L2152.72 65.7731M2160.14 68.8645L2126.02 34.4322L2160.14 0L2091.9 -2.9827e-06L2091.9 68.8614L2160.14 68.8614L2160.14 68.8645Z" fill="#C6C6C6"/>
</svg>
